<svg width="15" height="15" viewBox="0 0 15 15" fill="none" xmlns="http://www.w3.org/2000/svg">
<g clip-path="url(#clip0_1452_2232)">
<path d="M13.4062 0.5H1.59375C0.71475 0.5 0 1.19767 0 2.05556V12.9444C0 13.8023 0.71475 14.5 1.59375 14.5H13.4062C14.2852 14.5 15 13.8023 15 12.9444V2.05556C15 1.19767 14.2852 0.5 13.4062 0.5ZM13.4062 12.9444H1.59375C1.551 12.9444 1.52175 12.932 1.509 12.932C1.50375 12.932 1.50075 12.9336 1.5 12.9382L1.491 2.09133C1.49625 2.08356 1.53 2.05556 1.59375 2.05556H13.4062C13.4655 2.05633 13.4978 2.07733 13.5 2.06178L13.509 12.9087C13.5037 12.9164 13.47 12.9444 13.4062 12.9444Z" fill="#666666"/>
<path d="M3 3.61111H7.5V8.27778H3V3.61111ZM8.25 9.83334H3V11.3889H12V9.83334H9H8.25ZM9 6.72223H12V8.27778H9V6.72223ZM9 3.61111H12V5.16667H9V3.61111Z" fill="#666666"/>
</g>
<defs>
<clipPath id="clip0_1452_2232">
<rect width="15" height="14" fill="white" transform="translate(0 0.5)"/>
</clipPath>
</defs>
</svg>
