<svg width="18" height="18" viewBox="0 0 18 18" fill="none" xmlns="http://www.w3.org/2000/svg">
<path d="M1.36718 0.59214L17.4575 8.154C17.62 8.23039 17.7571 8.35035 17.8531 8.50005C17.9491 8.64975 18 8.82307 18 9C18 9.17693 17.9491 9.35025 17.8531 9.49995C17.7571 9.64964 17.62 9.76961 17.4575 9.846L1.36718 17.4079C1.20216 17.4856 1.01789 17.515 0.836302 17.4928C0.654718 17.4705 0.483478 17.3974 0.342977 17.2822C0.202476 17.167 0.0986361 17.0146 0.0438253 16.843C-0.0109855 16.6715 -0.0144573 16.4881 0.0338236 16.3146L1.64362 10.516C1.66333 10.445 1.70389 10.3812 1.76025 10.3326C1.8166 10.2841 1.88626 10.2529 1.96054 10.2429L9.75754 9.20221C9.79005 9.19773 9.82083 9.18509 9.84692 9.1655C9.873 9.14592 9.89351 9.12006 9.90645 9.09042L9.9202 9.04314C9.92622 9.00125 9.91766 8.95859 9.89589 8.92208C9.87413 8.88558 9.84044 8.85738 9.8003 8.84205L9.7583 8.8308L1.96894 7.79084C1.8948 7.78077 1.82531 7.74951 1.7691 7.70095C1.71289 7.6524 1.67244 7.58868 1.65279 7.51772L0.0338236 1.68538C-0.0144573 1.51195 -0.0109855 1.32854 0.0438253 1.15699C0.0986361 0.985445 0.202476 0.832994 0.342977 0.717796C0.483478 0.602597 0.654718 0.529506 0.836302 0.507228C1.01789 0.48495 1.20216 0.514424 1.36718 0.59214Z" fill="#0549AF"/>
</svg>
